#!OML:ASF E:\acrobat2\Project_11_07_03\Capture day 1\Session 1\Acrobat.ASF
:FULLY-SPECIFIED
:DEGREES
337
root 8.70942 11.4579 5.08088 -11.5598 7.53725 -6.26712
lowerback 20.5186 0.263472 1.08768
upperback 6.81458 0.590888 -0.034755
thorax -4.07365 0.310989 -0.795367
lowerneck -4.21318 -3.18686 -1.75473
upperneck -3.08855 -4.11141 5.81693
head -0.0803597 -2.03505 2.05981
rclavicle -8.54774e-015 9.54166e-015
rhumerus 33.5022 -3.22201 -38.3425
rradius 27.9044
rwrist -11.307
rhand -14.8051 -32.6946
rfingers 7.12502
rthumb 11.3528 -62.3673
lclavicle -8.54774e-015 9.54166e-015
lhumerus 52.9631 -2.1806 10.1187
lradius 25.3343
lwrist 16.0202
lhand -27.3624 -12.9507
lfingers 7.12502
lthumb -0.770131 17.0277
rfemur -84.6289 -19.1959 22.0575
rtibia 84.1973
rfoot -29.2286 -48.2003
rtoes -0.565791
lfemur -58.3434 11.0882 -13.9419
ltibia 58.8267
lfoot -180.317 14.5693
ltoes 37.4316
338
root 8.73562 11.436 5.07775 -11.6024 7.48869 -6.51461
lowerback 20.4838 0.193981 1.25746
upperback 6.87044 0.537362 0.046171
thorax -3.99583 0.285694 -0.792484
lowerneck -4.80184 -3.17707 -1.77742
upperneck -2.97858 -4.10066 5.67313
head 0.0496055 -2.01932 2.00634
rclavicle -1.78906e-015 6.36111e-015
rhumerus 33.1387 -5.06451 -38.7232
rradius 27.4173
rwrist -11.087
rhand -14.208 -32.7163
rfingers 7.12502
rthumb 11.9286 -62.3564
lclavicle -1.78906e-015 6.36111e-015
lhumerus 51.7352 -1.46189 10.4004
lradius 24.8985
lwrist 16.4047
lhand -27.5606 -12.4564
lfingers 7.12502
lthumb -0.961495 17.5212
rfemur -84.3513 -19.1623 22.1279
rtibia 79.9044
rfoot -14.6163 -21.4989
rtoes -1.89511
lfemur -58.0183 10.9792 -13.9008
ltibia 59.0441
lfoot -180.97 14.7179
ltoes 37.118
339
root 8.7589 11.3989 5.07007 -11.664 7.47106 -6.88053
lowerback 20.5756 0.126995 1.54596
upperback 6.90104 0.513787 0.146945
thorax -4.00843 0.27505 -0.844206
lowerneck -5.17321 -3.17318 -1.75357
upperneck -3.14584 -4.08802 5.58716
head 0.0566429 -2.01017 1.97011
rclavicle 1.39149e-014 7.15625e-015
rhumerus 32.6689 -6.8175 -38.8542
rradius 27.0565
rwrist -11.0739
rhand -13.3958 -32.5861
rfingers 7.12502
rthumb 12.7117 -62.1792
lclavicle 1.39149e-014 7.15625e-015
lhumerus 50.9839 -0.140195 11.9263
lradius 24.0349
lwrist 15.7701
lhand -27.852 -12.0402
lfingers 7.12502
lthumb -1.24301 17.9359
rfemur -84.0158 -19.0966 22.2788
rtibia 75.9067
rfoot -12.7175 -17.8166
rtoes -2.62538
lfemur -57.8019 10.7058 -13.6739
ltibia 58.8619
lfoot -181.698 15.2599
ltoes 37.3977
340
root 8.77694 11.3518 5.06246 -11.7424 7.46224 -7.14054
lowerback 20.6867 0.107547 1.68312
upperback 6.96864 0.521271 0.215573
thorax -3.99159 0.279668 -0.851284
lowerneck -5.47402 -3.19027 -1.77239
upperneck -3.35657 -4.09762 5.77025
head 0.0468491 -2.01243 2.02988
rclavicle 3.97569e-015 5.56597e-015
rhumerus 32.1183 -8.57722 -38.9369
rradius 26.8837
rwrist -11.3763
rhand -13.0333 -31.884
rfingers 7.12502
rthumb 13.0611 -61.455
lclavicle 3.97569e-015 5.56597e-015
lhumerus 50.4417 1.37893 13.6945
lradius 23.1689
lwrist 14.8643
lhand -28.0905 -11.5267
lfingers 7.12502
lthumb -1.47329 18.4479
rfemur -83.5586 -18.9399 22.2192
rtibia 71.8292
rfoot -11.4689 -15.2948
rtoes -3.05293
lfemur -57.596 10.3401 -13.5095
ltibia 58.6055
lfoot -182.326 15.7207
ltoes 38.1371
341
root 8.79217 11.2914 5.05626 -11.7925 7.41996 -7.24332
lowerback 20.8779 0.150293 1.57435
upperback 6.97994 0.562548 0.277671
thorax -4.0783 0.297997 -0.734326
lowerneck -5.92719 -3.26077 -1.72024
upperneck -3.29879 -4.19451 5.86942
head 0.146333 -2.05318 2.04297
rclavicle 1.0138e-014 2.22639e-014
rhumerus 31.4535 -10.2824 -38.9865
rradius 26.9603
rwrist -11.9109
rhand -12.7418 -31.3983
rfingers 7.12502
rthumb 13.3421 -60.9512
lclavicle 1.0138e-014 2.22639e-014
lhumerus 49.7492 2.63845 15.0062
lradius 22.6465
lwrist 14.4836
lhand -28.2028 -10.8981
lfingers 7.12502
lthumb -1.58179 19.0758
rfemur -83.0632 -18.6665 21.9217
rtibia 67.6948
rfoot -10.5078 -13.5148
rtoes -2.76236
lfemur -57.4951 9.98773 -13.5174
ltibia 58.3328
lfoot -183.105 16.0495
ltoes 37.8272
342
root 8.80852 11.2165 5.05214 -11.804 7.43549 -7.47459
lowerback 21.0985 0.141524 1.64655
upperback 6.92496 0.573585 0.329121
thorax -4.24989 0.301513 -0.725159
lowerneck -6.60352 -3.32728 -1.3024
upperneck -3.0568 -4.31996 5.57821
head 0.321997 -2.10781 1.85924
rclavicle -1.94809e-014 7.95139e-015
rhumerus 30.6688 -11.78 -38.8511
rradius 27.1897
rwrist -12.769
rhand -12.3179 -31.5123
rfingers 7.12502
rthumb 13.7506 -61.0379
lclavicle -1.94809e-014 7.95139e-015
lhumerus 49.077 3.6612 15.805
lradius 22.2814
lwrist 14.8238
lhand -28.2377 -10.4812
lfingers 7.12502
lthumb -1.61553 19.4924
rfemur -82.6238 -18.4835 21.7837
rtibia 63.6865
rfoot -9.60636 -12.1953
rtoes -2.9992
lfemur -57.5996 9.50346 -13.4202
ltibia 57.8759
lfoot -183.753 16.5313
ltoes 37.7486
